<svg width="15" height="15" viewBox="0 0 15 15" fill="none" xmlns="http://www.w3.org/2000/svg">
<path d="M13.647 6.84713H13.1771V6.82292H7.92708V9.15625H11.2238C10.7428 10.5145 9.45046 11.4896 7.92708 11.4896C5.99421 11.4896 4.42708 9.92246 4.42708 7.98958C4.42708 6.05671 5.99421 4.48958 7.92708 4.48958C8.81929 4.48958 9.631 4.82617 10.249 5.37596L11.899 3.726C10.8572 2.75504 9.46358 2.15625 7.92708 2.15625C4.70563 2.15625 2.09375 4.76813 2.09375 7.98958C2.09375 11.211 4.70563 13.8229 7.92708 13.8229C11.1485 13.8229 13.7604 11.211 13.7604 7.98958C13.7604 7.59846 13.7202 7.21667 13.647 6.84713Z" fill="#FFC107"/>
<path d="M2.76562 5.27446L4.68217 6.68C5.20075 5.39608 6.45667 4.48958 7.92637 4.48958C8.81858 4.48958 9.63029 4.82617 10.2483 5.37596L11.8983 3.726C10.8565 2.75504 9.46287 2.15625 7.92637 2.15625C5.68579 2.15625 3.74271 3.42121 2.76562 5.27446Z" fill="#FF3D00"/>
<path d="M7.9275 13.8228C9.43425 13.8228 10.8033 13.2462 11.8385 12.3085L10.033 10.7807C9.4277 11.2411 8.68801 11.4901 7.9275 11.4895C6.41025 11.4895 5.12196 10.522 4.63663 9.17188L2.73438 10.6375C3.69979 12.5266 5.66038 13.8228 7.9275 13.8228Z" fill="#4CAF50"/>
<path d="M13.6457 6.84647H13.1758V6.82227H7.92578V9.1556H11.2225C10.9924 9.80205 10.578 10.3669 10.0304 10.7805L10.0313 10.7799L11.8367 12.3076C11.709 12.4237 13.7591 10.9056 13.7591 7.98893C13.7591 7.59781 13.7189 7.21602 13.6457 6.84647Z" fill="#1976D2"/>
</svg>
