<svg width="28" height="29" viewBox="0 0 28 29" fill="none" xmlns="http://www.w3.org/2000/svg">
<path d="M2 12.3333C1.99991 11.9454 2.08445 11.5622 2.24772 11.2103C2.41099 10.8584 2.64906 10.5464 2.94533 10.296L12.2787 2.29733C12.76 1.89054 13.3698 1.66736 14 1.66736C14.6302 1.66736 15.24 1.89054 15.7213 2.29733L25.0547 10.296C25.3509 10.5464 25.589 10.8584 25.7523 11.2103C25.9156 11.5622 26.0001 11.9454 26 12.3333V24.3333C26 25.0406 25.719 25.7189 25.219 26.2189C24.7189 26.719 24.0406 27 23.3333 27H4.66667C3.95942 27 3.28115 26.719 2.78105 26.2189C2.28095 25.7189 2 25.0406 2 24.3333V12.3333Z" stroke="#D97706" stroke-width="2.66667" stroke-linecap="round" stroke-linejoin="round"/>
</svg>
