<svg width="28" height="23" viewBox="0 0 28 23" fill="none" xmlns="http://www.w3.org/2000/svg">
<path d="M24.6665 16.3333V4.33329C24.6665 3.62605 24.3856 2.94777 23.8855 2.44767C23.3854 1.94758 22.7071 1.66663 21.9999 1.66663H5.99987C5.29262 1.66663 4.61434 1.94758 4.11425 2.44767C3.61415 2.94777 3.3332 3.62605 3.3332 4.33329V16.3333M24.6665 16.3333H3.3332M24.6665 16.3333L26.3732 19.7333C26.476 19.9373 26.5247 20.1642 26.5145 20.3924C26.5044 20.6206 26.4358 20.8424 26.3154 21.0365C26.1949 21.2306 26.0266 21.3904 25.8266 21.5008C25.6266 21.6111 25.4016 21.6682 25.1732 21.6666H2.82653C2.59812 21.6682 2.37312 21.6111 2.17312 21.5008C1.97312 21.3904 1.80483 21.2306 1.68437 21.0365C1.56391 20.8424 1.49533 20.6206 1.4852 20.3924C1.47507 20.1642 1.52374 19.9373 1.62653 19.7333L3.3332 16.3333" stroke="#2563EB" stroke-width="2.66667" stroke-linecap="round" stroke-linejoin="round"/>
</svg>
